<?xml version="1.0" standalone="no"?>
<!DOCTYPE svg PUBLIC "-//W3C//DTD SVG 20010904//EN"
 "http://www.w3.org/TR/2001/REC-SVG-20010904/DTD/svg10.dtd">
<svg version="1.0" xmlns="http://www.w3.org/2000/svg"
 width="30.000000pt" height="30.000000pt" viewBox="0 0 752.000000 752.000000"
 preserveAspectRatio="xMidYMid meet">

<g transform="translate(0.000000,752.000000) scale(0.100000,-0.100000)"
fill="#000000" stroke="none">
<path d="M2465 5987 c-26 -14 -48 -37 -62 -67 -21 -41 -23 -58 -23 -222 0
-195 6 -223 56 -270 16 -14 47 -31 69 -37 28 -8 411 -11 1255 -11 844 0 1227
3 1255 11 22 6 53 23 69 37 50 47 56 75 56 270 0 164 -2 181 -22 222 -17 33
-35 51 -68 68 l-44 22 -1251 0 -1250 0 -40 -23z"/>
<path d="M2625 5080 c-109 -54 -313 -359 -390 -584 -82 -241 -87 -330 -83
-1531 3 -915 5 -984 22 -1035 64 -193 203 -337 381 -393 l70 -22 1135 0 1135
0 70 22 c179 56 317 199 381 393 17 51 19 119 22 1035 4 1201 -1 1290 -83
1531 -79 229 -293 547 -396 588 -35 14 -166 16 -1132 16 -1070 0 -1093 0
-1132 -20z m1263 -742 c8 -8 12 -48 12 -114 l0 -103 58 -16 c31 -9 77 -28 102
-43 60 -34 146 -117 176 -168 53 -91 80 -214 52 -242 -13 -13 -245 -17 -264
-4 -6 4 -17 24 -23 45 -16 47 -54 93 -94 114 -41 21 -178 28 -250 13 -163 -34
-209 -207 -84 -317 42 -37 59 -40 227 -47 175 -6 258 -37 362 -134 198 -184
204 -494 12 -686 -57 -57 -167 -120 -230 -132 l-34 -6 0 -109 c0 -97 -2 -109
-19 -119 -25 -13 -227 -13 -252 0 -17 10 -19 22 -19 115 l0 104 -61 17 c-78
22 -161 76 -222 144 -54 60 -71 89 -98 168 -22 63 -25 122 -7 140 13 13 245
17 264 4 5 -4 18 -28 28 -54 35 -95 127 -136 278 -125 89 7 132 23 170 63 78
84 59 225 -39 285 -33 20 -55 24 -183 30 -156 7 -213 20 -295 68 -159 93 -246
238 -247 411 -1 218 138 406 345 465 l57 16 0 103 c0 66 4 106 12 114 8 8 52
12 133 12 81 0 125 -4 133 -12z"/>
</g>
</svg>
